<?xml version="1.0" encoding="UTF-8"?>
<svg width="150mm" height="150mm" version="1.1" viewBox="0 0 150 150" xmlns="http://www.w3.org/2000/svg" xmlns:cc="http://creativecommons.org/ns#" xmlns:dc="http://purl.org/dc/elements/1.1/" xmlns:rdf="http://www.w3.org/1999/02/22-rdf-syntax-ns#" xmlns:xlink="http://www.w3.org/1999/xlink">
<defs>
<radialGradient id="b" cx="100" cy="902.41" r="50.176" gradientTransform="matrix(1 0 0 1.0009 -208.8 -141.46)" gradientUnits="userSpaceOnUse">
<stop stop-color="#8fa5c7" offset="0"/>
<stop stop-color="#6b89b5" offset="1"/>
</radialGradient>
<radialGradient id="a" cx="734.64" cy="367.94" r="156" gradientTransform="matrix(-.95238 -.0091575 .0046827 -.48716 959.65 401.4)" gradientUnits="userSpaceOnUse">
<stop stop-color="#2668a3" offset="0"/>
<stop stop-color="#0f3f87" offset="1"/>
</radialGradient>
</defs>
<metadata>
<rdf:RDF>
<cc:Work rdf:about="">
<dc:format>image/svg+xml</dc:format>
<dc:type rdf:resource="http://purl.org/dc/dcmitype/StillImage"/>
<dc:title/>
</cc:Work>
</rdf:RDF>
</metadata>
<g transform="translate(-40.368 -55.983)">
<g transform="matrix(.26458 0 0 .26458 225.2 27.427)">
<g transform="translate(-584.29 -7.1429)">
<g transform="translate(-114.29 170)">
<circle cx="284" cy="228" r="256" fill="#14498e"/>
<path d="m532.77 288.38c-0.048-0.084-0.072-0.2-0.116-0.28-0.196-0.752-0.46-1.444-0.828-2.06-0.196-0.748-0.46-1.428-0.828-2.044-0.196-0.752-0.46-1.444-0.828-2.056-0.196-0.748-0.46-1.428-0.824-2.04-0.196-0.752-0.464-1.444-0.832-2.064-0.196-0.752-0.46-1.432-0.828-2.044-0.192-0.752-0.46-1.44-0.828-2.056-0.196-0.752-0.46-1.44-0.828-2.056-0.196-0.748-0.46-1.432-0.828-2.044-0.196-0.752-0.46-1.444-0.828-2.056-0.196-0.748-0.46-1.428-0.82-2.04-0.196-0.752-0.46-1.444-0.836-2.064-0.192-0.752-0.46-1.432-0.82-2.044-0.2-0.752-0.468-1.444-0.836-2.06-0.192-0.748-0.46-1.432-0.82-2.044-0.2-0.752-0.46-1.44-0.828-2.052-0.196-0.752-0.468-1.444-0.836-2.06-0.188-0.744-0.452-1.424-0.82-2.036-0.196-0.752-0.456-1.444-0.828-2.064-0.196-0.752-0.46-1.432-0.828-2.044-0.196-0.752-0.46-1.444-0.828-2.06-0.196-0.748-0.46-1.432-0.828-2.044-0.196-0.752-0.46-1.444-0.828-2.056-0.196-0.752-0.46-1.432-0.824-2.048-0.2-0.748-0.46-1.428-0.828-2.044-0.2-0.752-0.46-1.448-0.828-2.064-0.2-0.752-0.46-1.432-0.828-2.048-0.2-0.752-0.46-1.44-0.828-2.056-0.2-0.748-0.46-1.432-0.828-2.044-0.2-0.752-0.46-1.444-0.828-2.056-0.196-0.752-0.46-1.432-0.828-2.048-0.196-0.752-0.46-1.44-0.828-2.056-0.196-0.748-0.46-1.428-0.824-2.036-0.192-0.752-0.46-1.444-0.832-2.064-0.196-0.752-0.456-1.44-0.828-2.056-0.196-0.748-0.456-1.436-0.828-2.044-0.196-0.752-0.456-1.444-0.828-2.06-0.196-0.748-0.456-1.428-0.828-2.044-0.196-0.752-0.456-1.44-0.828-2.056-0.196-0.748-0.456-1.428-0.816-2.036-0.2-0.752-0.468-1.448-0.836-2.068-0.196-0.748-0.46-1.428-0.828-2.044-0.196-0.752-0.46-1.44-0.828-2.056-0.196-0.752-0.46-1.44-0.828-2.056-0.196-0.748-0.46-1.428-0.828-2.044-0.196-0.752-0.46-1.44-0.828-2.056-0.196-0.748-0.46-1.428-0.82-2.036-0.196-0.752-0.46-1.448-0.836-2.068-0.196-0.748-0.456-1.432-0.82-2.044-0.196-0.752-0.464-1.444-0.836-2.056-0.196-0.752-0.456-1.436-0.82-2.048-0.196-0.752-0.464-1.444-0.836-2.056-0.196-0.752-0.456-1.428-0.82-2.048-0.196-0.752-0.464-1.436-0.828-2.048-0.196-0.752-0.46-1.436-0.828-2.052-0.196-0.752-0.46-1.44-0.828-2.052-0.196-0.752-0.46-1.444-0.828-2.056-0.196-0.752-0.46-1.436-0.828-2.048-0.196-0.752-0.46-1.444-0.828-2.056-0.196-0.752-0.46-1.428-0.828-2.048-0.196-0.752-0.46-1.44-0.828-2.056-0.196-0.744-0.46-1.428-0.824-2.036-0.192-0.752-0.464-1.44-0.832-2.06-0.196-0.752-0.46-1.444-0.828-2.056-0.196-0.752-0.46-1.436-0.828-2.048-0.196-0.752-0.46-1.444-0.828-2.056-0.196-0.752-0.46-1.432-0.828-2.048-0.196-0.752-0.46-1.44-0.828-2.056-0.196-0.744-0.46-1.428-0.82-2.036-0.196-0.752-0.46-1.448-0.836-2.068-0.192-0.748-0.46-1.428-0.82-2.04-0.2-0.752-0.46-1.444-0.828-2.056-0.2-0.752-0.468-1.444-0.836-2.056-0.192-0.752-0.46-1.432-0.82-2.048-0.2-0.752-0.468-1.44-0.836-2.056-0.192-0.744-0.452-1.428-0.82-2.036-0.196-0.752-0.456-1.448-0.828-2.068-0.196-0.748-0.46-1.428-0.828-2.044-0.196-0.752-0.46-1.44-0.828-2.056-0.196-0.748-0.46-1.436-0.828-2.044-0.196-0.752-0.46-1.44-0.828-2.056-0.196-0.752-0.46-1.444-0.828-2.056-0.196-0.744-0.456-1.428-0.828-2.036-0.196-0.752-0.456-1.448-0.824-2.068-0.2-0.748-0.46-1.428-0.828-2.044-0.2-0.752-0.46-1.44-0.828-2.056-0.2-0.748-0.46-1.436-0.828-2.044-0.2-0.752-0.46-1.444-0.828-2.06-0.2-0.748-0.46-1.432-0.828-2.044-0.2-0.752-0.46-1.444-0.828-2.056-0.196-0.748-0.46-1.428-0.824-2.04-0.192-0.752-0.464-1.444-0.832-2.06-0.196-0.752-0.46-1.44-0.828-2.06-0.932-3.264-3.768-5.304-7.688-5.304h-328c-4.78 0-8 2.996-8 8v208c0 1.62 0.416 3.044 1.124 4.244 0.184 0.748 0.46 1.42 0.82 2.048 0.188 0.74 0.46 1.416 0.828 2.044 0.188 0.748 0.46 1.436 0.828 2.064 0.188 0.748 0.46 1.42 0.828 2.048 0.188 0.748 0.46 1.428 0.828 2.056 0.188 0.74 0.46 1.416 0.828 2.044 0.188 0.752 0.46 1.428 0.828 2.06 0.188 0.744 0.46 1.416 0.828 2.044 0.188 0.748 0.46 1.428 0.828 2.056 0.188 0.744 0.456 1.416 0.82 2.036 0.188 0.752 0.464 1.436 0.836 2.068 0.188 0.744 0.46 1.416 0.828 2.044 0.188 0.744 0.456 1.428 0.828 2.052 0.188 0.752 0.456 1.428 0.824 2.06 0.192 0.744 0.464 1.416 0.828 2.044 0.192 0.748 0.46 1.428 0.828 2.056 0.192 0.744 0.46 1.416 0.824 2.036 0.184 0.752 0.464 1.436 0.832 2.068 0.188 0.744 0.46 1.416 0.828 2.044 0.184 0.752 0.46 1.432 0.828 2.056 0.188 0.744 0.46 1.42 0.828 2.048 0.184 0.744 0.46 1.424 0.828 2.052 0.184 0.748 0.46 1.432 0.828 2.056 0.188 0.744 0.456 1.416 0.82 2.04 0.188 0.748 0.464 1.432 0.836 2.064 0.184 0.744 0.456 1.416 0.824 2.044 0.184 0.752 0.46 1.432 0.832 2.06 0.184 0.74 0.456 1.416 0.824 2.044 0.184 0.748 0.46 1.424 0.832 2.056 0.184 0.748 0.456 1.42 0.824 2.044 0.184 0.744 0.46 1.42 0.82 2.048 0.192 0.748 0.468 1.432 0.836 2.064 0.184 0.744 0.46 1.42 0.82 2.044 0.188 0.752 0.468 1.432 0.836 2.06 0.18 0.74 0.46 1.416 0.82 2.044 0.188 0.748 0.468 1.424 0.836 2.056 0.18 0.748 0.46 1.42 0.82 2.044 0.188 0.748 0.46 1.424 0.828 2.052 0.188 0.744 0.46 1.424 0.828 2.052 0.188 0.744 0.46 1.428 0.828 2.052 0.188 0.752 0.46 1.432 0.828 2.06 0.188 0.74 0.464 1.416 0.828 2.044 0.188 0.748 0.46 1.424 0.828 2.056 0.188 0.748 0.464 1.42 0.828 2.044 0.188 0.752 0.46 1.432 0.828 2.06 0.188 0.74 0.46 1.416 0.824 2.036 0.184 0.752 0.464 1.436 0.832 2.064 0.188 0.748 0.46 1.42 0.828 2.048 0.184 0.748 0.46 1.428 0.828 2.056 0.188 0.74 0.46 1.42 0.828 2.044 0.184 0.748 0.46 1.428 0.828 2.056 0.184 0.748 0.46 1.428 0.828 2.056 0.188 0.74 0.46 1.416 0.82 2.036 0.188 0.752 0.468 1.436 0.836 2.068 0.184 0.744 0.46 1.416 0.824 2.044 0.184 0.748 0.464 1.428 0.832 2.056 0.184 0.744 0.46 1.42 0.824 2.044 0.184 0.752 0.464 1.428 0.832 2.06 0.184 0.744 0.46 1.416 0.824 2.044 0.184 0.74 0.456 1.416 0.824 2.044 0.188 0.752 0.46 1.436 0.828 2.068 0.188 0.744 0.46 1.416 0.828 2.044 0.188 0.748 0.46 1.428 0.828 2.056 0.188 0.744 0.46 1.42 0.828 2.044 0.188 0.752 0.46 1.428 0.828 2.06 0.188 0.744 0.46 1.416 0.828 2.044 0.188 0.752 0.46 1.432 0.828 2.056 0.188 0.744 0.456 1.416 0.82 2.04 0.188 0.748 0.464 1.428 0.836 2.06 0.188 0.748 0.456 1.432 0.828 2.056 0.188 0.744 0.46 1.42 0.828 2.048 0.056 0.216 0.164 0.384 0.236 0.584 33.812 16.276 71.768 25.524 111.88 25.524 120.58 0 221.62-83.388 248.77-195.62z" fill="#0f3f87"/>
</g>
<g transform="matrix(4.329 0 0 4.3275 630.37 -3157.4)" stroke-width=".9292">
<path d="m-102.39 871.51c1.9342-0.2301 3.0373-0.5154 3.2987-0.8531 0.69233-0.8943 3.5641-7.9864 5.4122-13.366 8.4098-24.48 9.4049-50.043 2.9309-75.294-1.8274-7.1274-2.1824-8.1123-2.9662-8.2301-0.55671-0.084-0.70849 0.3307-1.3604 3.7133-1.0905 5.658-3.4024 14.905-5.2533 21.011-7.8492 25.895-19.014 46.957-32.953 62.163-3.0454 3.3223-3.2247 2.8258 1.9925 5.5182 5.2319 2.7 12.098 4.8476 17.436 5.4537 2.4319 0.2761 8.7006 0.2126 11.463-0.1161zm38.732-27.259c9.4936-18.944 6.2167-41.71-8.1672-56.741-2.8267-2.9538-7.7223-7.2154-7.986-6.9517-0.0584 0.058 0.76332 2.3534 1.8261 5.1 5.2624 13.6 8.9499 27.546 10.709 40.5 0.57675 4.2481 0.70507 6.7849 0.71504 14.136 0.014 10.336-0.16848 10.087 2.9035 3.9571zm-87.115-13.688c8.0206-5.3446 13.519-9.8501 20.31-16.644 9.9534-9.9565 16.876-19.476 22.906-31.5 2.0065-4.0008 4.7655-10.359 4.5769-10.548-0.0712-0.071-0.85331-0.2152-1.738-0.32l-1.6086-0.1905-3.6821 2.8945c-11.439 8.9921-25.914 17.412-38.46 22.372l-4.4264 1.7499-1.1361 2.4854c-3.514 7.6873-5.1692 16.879-4.4184 24.536 0.41221 4.2032 1.3008 9.0035 1.6667 9.0035 0.13633 0 2.8408-1.7278 6.01-3.8395z" fill="url(#b)" stroke-width=".9292"/>
</g>
<g transform="translate(28,-28)">
<path transform="translate(-114.29 170)" d="m84 304v-176c0-5.004 3.22-8 8-8h328c4.78 0 8 2.996 8 8v176z" fill="#1e2c33"/>
<path transform="translate(-114.29 170)" d="m84 304v32c0 4.78 3.408 8 8.188 8h327.81c4.78 0 8-3.22 8-8v-32z" fill="#f5f5f5"/>
<path transform="translate(-114.29 170)" d="m328 388c0-4.416-3.584-8-8-8h-128c-4.416 0-8 3.584-8 8s3.584 8 8 8h128c4.416 0 8-3.584 8-8z" fill="#f5f5f5"/>
<rect transform="translate(-114.29 170)" x="212" y="344" width="88" height="36" fill="#e6e6e6"/>
<circle transform="translate(-114.29 170)" cx="256.2" cy="320" r="8" fill="#1e2c33"/>
<rect transform="translate(-114.29 170)" x="100" y="138" width="312" height="152" fill="url(#a)"/>
<path transform="translate(-114.29 170)" d="m315.3 223.04c0.132-1.5 0.212-3.02 0.212-4.56 0-28.028-22.492-50.752-50.236-50.752-24.212 0-44.424 17.32-49.172 40.368-0.156 0-0.296-0.024-0.444-0.024-17.656 0-31.964 14.312-31.964 31.964s14.308 31.964 31.964 31.964h86.152c14.628 0 26.484-11.784 26.484-26.328 0-9.64-5.22-18.044-12.996-22.632z" fill="#f5f5f5"/>
<g transform="matrix(.56344 0 0 .56344 579.96 180.04)">
<g transform="translate(-38.571 -27.143)" fill="#3f6a80">
<path d="m-683.3 381.47c-0.32-0.788-0.8-1.488-1.404-2.068l-19.912-19.912c-2.344-2.344-6.14-2.344-8.484 0s-2.344 6.14 0 8.484l9.744 9.744h-73.5c-3.312 0-6 2.688-6 6s2.688 6 6 6h73.516l-9.76 9.764c-2.344 2.344-2.344 6.136 0 8.48 1.172 1.172 2.708 1.756 4.244 1.756s3.072-0.584 4.24-1.744l20-20c0.016-0.016 0.024-0.044 0.04-0.06 0.532-0.544 0.964-1.184 1.26-1.896 0.016-0.04 0.02-0.076 0.036-0.116 0.268-0.68 0.424-1.412 0.424-2.184 0-0.788-0.16-1.536-0.436-2.228-4e-3 -4e-3 -4e-3 -0.012-8e-3 -0.02z"/>
<path d="m-688.86 433.71h-73.516l9.756-9.756c2.344-2.344 2.344-6.136 0-8.48-2.344-2.348-6.14-2.348-8.484 0l-19.976 19.976c-0.568 0.56-1.02 1.236-1.328 1.984-0.012 0.032-0.016 0.064-0.032 0.096-0.264 0.672-0.42 1.4-0.42 2.168v0.04c4e-3 0.756 0.156 1.472 0.416 2.136 0.016 0.04 0.02 0.084 0.04 0.124 0.3 0.728 0.74 1.38 1.284 1.932 8e-3 8e-3 8e-3 0.016 0.016 0.024l20 20c1.172 1.172 2.708 1.756 4.244 1.756s3.072-0.584 4.24-1.764c2.344-2.344 2.344-6.136 0-8.48l-9.756-9.756h73.516c3.312 0 6-2.688 6-6s-2.688-6-6-6z"/>
</g>
</g>
</g>
</g>
</g>
</g>
</svg>
